<?xml version="1.0"?>
<svg xmlns="http://www.w3.org/2000/svg" xmlns:xlink="http://www.w3.org/1999/xlink" version="1.1" width="212px" height="212px" viewBox="0 0 212 212"><defs><rect id="block" width="6" height="6" fill="#000000" fill-opacity="0.99212598425197"/></defs><rect x="0" y="0" width="212" height="212" fill="#ffffff" fill-opacity="0.99212598425197"/><use x="7" y="7" xlink:href="#block"/><use x="13" y="7" xlink:href="#block"/><use x="19" y="7" xlink:href="#block"/><use x="25" y="7" xlink:href="#block"/><use x="31" y="7" xlink:href="#block"/><use x="37" y="7" xlink:href="#block"/><use x="43" y="7" xlink:href="#block"/><use x="61" y="7" xlink:href="#block"/><use x="67" y="7" xlink:href="#block"/><use x="79" y="7" xlink:href="#block"/><use x="85" y="7" xlink:href="#block"/><use x="91" y="7" xlink:href="#block"/><use x="97" y="7" xlink:href="#block"/><use x="109" y="7" xlink:href="#block"/><use x="121" y="7" xlink:href="#block"/><use x="133" y="7" xlink:href="#block"/><use x="151" y="7" xlink:href="#block"/><use x="163" y="7" xlink:href="#block"/><use x="169" y="7" xlink:href="#block"/><use x="175" y="7" xlink:href="#block"/><use x="181" y="7" xlink:href="#block"/><use x="187" y="7" xlink:href="#block"/><use x="193" y="7" xlink:href="#block"/><use x="199" y="7" xlink:href="#block"/><use x="7" y="13" xlink:href="#block"/><use x="43" y="13" xlink:href="#block"/><use x="55" y="13" xlink:href="#block"/><use x="61" y="13" xlink:href="#block"/><use x="67" y="13" xlink:href="#block"/><use x="73" y="13" xlink:href="#block"/><use x="79" y="13" xlink:href="#block"/><use x="91" y="13" xlink:href="#block"/><use x="103" y="13" xlink:href="#block"/><use x="109" y="13" xlink:href="#block"/><use x="133" y="13" xlink:href="#block"/><use x="139" y="13" xlink:href="#block"/><use x="151" y="13" xlink:href="#block"/><use x="163" y="13" xlink:href="#block"/><use x="199" y="13" xlink:href="#block"/><use x="7" y="19" xlink:href="#block"/><use x="19" y="19" xlink:href="#block"/><use x="25" y="19" xlink:href="#block"/><use x="31" y="19" xlink:href="#block"/><use x="43" y="19" xlink:href="#block"/><use x="55" y="19" xlink:href="#block"/><use x="67" y="19" xlink:href="#block"/><use x="91" y="19" xlink:href="#block"/><use x="97" y="19" xlink:href="#block"/><use x="103" y="19" xlink:href="#block"/><use x="109" y="19" xlink:href="#block"/><use x="127" y="19" xlink:href="#block"/><use x="133" y="19" xlink:href="#block"/><use x="139" y="19" xlink:href="#block"/><use x="163" y="19" xlink:href="#block"/><use x="175" y="19" xlink:href="#block"/><use x="181" y="19" xlink:href="#block"/><use x="187" y="19" xlink:href="#block"/><use x="199" y="19" xlink:href="#block"/><use x="7" y="25" xlink:href="#block"/><use x="19" y="25" xlink:href="#block"/><use x="25" y="25" xlink:href="#block"/><use x="31" y="25" xlink:href="#block"/><use x="43" y="25" xlink:href="#block"/><use x="55" y="25" xlink:href="#block"/><use x="61" y="25" xlink:href="#block"/><use x="73" y="25" xlink:href="#block"/><use x="91" y="25" xlink:href="#block"/><use x="121" y="25" xlink:href="#block"/><use x="127" y="25" xlink:href="#block"/><use x="133" y="25" xlink:href="#block"/><use x="139" y="25" xlink:href="#block"/><use x="163" y="25" xlink:href="#block"/><use x="175" y="25" xlink:href="#block"/><use x="181" y="25" xlink:href="#block"/><use x="187" y="25" xlink:href="#block"/><use x="199" y="25" xlink:href="#block"/><use x="7" y="31" xlink:href="#block"/><use x="19" y="31" xlink:href="#block"/><use x="25" y="31" xlink:href="#block"/><use x="31" y="31" xlink:href="#block"/><use x="43" y="31" xlink:href="#block"/><use x="55" y="31" xlink:href="#block"/><use x="61" y="31" xlink:href="#block"/><use x="67" y="31" xlink:href="#block"/><use x="91" y="31" xlink:href="#block"/><use x="97" y="31" xlink:href="#block"/><use x="103" y="31" xlink:href="#block"/><use x="109" y="31" xlink:href="#block"/><use x="115" y="31" xlink:href="#block"/><use x="121" y="31" xlink:href="#block"/><use x="133" y="31" xlink:href="#block"/><use x="145" y="31" xlink:href="#block"/><use x="163" y="31" xlink:href="#block"/><use x="175" y="31" xlink:href="#block"/><use x="181" y="31" xlink:href="#block"/><use x="187" y="31" xlink:href="#block"/><use x="199" y="31" xlink:href="#block"/><use x="7" y="37" xlink:href="#block"/><use x="43" y="37" xlink:href="#block"/><use x="55" y="37" xlink:href="#block"/><use x="79" y="37" xlink:href="#block"/><use x="91" y="37" xlink:href="#block"/><use x="103" y="37" xlink:href="#block"/><use x="115" y="37" xlink:href="#block"/><use x="121" y="37" xlink:href="#block"/><use x="127" y="37" xlink:href="#block"/><use x="133" y="37" xlink:href="#block"/><use x="139" y="37" xlink:href="#block"/><use x="145" y="37" xlink:href="#block"/><use x="163" y="37" xlink:href="#block"/><use x="199" y="37" xlink:href="#block"/><use x="7" y="43" xlink:href="#block"/><use x="13" y="43" xlink:href="#block"/><use x="19" y="43" xlink:href="#block"/><use x="25" y="43" xlink:href="#block"/><use x="31" y="43" xlink:href="#block"/><use x="37" y="43" xlink:href="#block"/><use x="43" y="43" xlink:href="#block"/><use x="55" y="43" xlink:href="#block"/><use x="67" y="43" xlink:href="#block"/><use x="79" y="43" xlink:href="#block"/><use x="91" y="43" xlink:href="#block"/><use x="103" y="43" xlink:href="#block"/><use x="115" y="43" xlink:href="#block"/><use x="127" y="43" xlink:href="#block"/><use x="139" y="43" xlink:href="#block"/><use x="151" y="43" xlink:href="#block"/><use x="163" y="43" xlink:href="#block"/><use x="169" y="43" xlink:href="#block"/><use x="175" y="43" xlink:href="#block"/><use x="181" y="43" xlink:href="#block"/><use x="187" y="43" xlink:href="#block"/><use x="193" y="43" xlink:href="#block"/><use x="199" y="43" xlink:href="#block"/><use x="67" y="49" xlink:href="#block"/><use x="73" y="49" xlink:href="#block"/><use x="103" y="49" xlink:href="#block"/><use x="109" y="49" xlink:href="#block"/><use x="121" y="49" xlink:href="#block"/><use x="133" y="49" xlink:href="#block"/><use x="145" y="49" xlink:href="#block"/><use x="151" y="49" xlink:href="#block"/><use x="19" y="55" xlink:href="#block"/><use x="37" y="55" xlink:href="#block"/><use x="43" y="55" xlink:href="#block"/><use x="49" y="55" xlink:href="#block"/><use x="55" y="55" xlink:href="#block"/><use x="61" y="55" xlink:href="#block"/><use x="73" y="55" xlink:href="#block"/><use x="79" y="55" xlink:href="#block"/><use x="91" y="55" xlink:href="#block"/><use x="97" y="55" xlink:href="#block"/><use x="115" y="55" xlink:href="#block"/><use x="121" y="55" xlink:href="#block"/><use x="133" y="55" xlink:href="#block"/><use x="157" y="55" xlink:href="#block"/><use x="169" y="55" xlink:href="#block"/><use x="175" y="55" xlink:href="#block"/><use x="181" y="55" xlink:href="#block"/><use x="187" y="55" xlink:href="#block"/><use x="193" y="55" xlink:href="#block"/><use x="13" y="61" xlink:href="#block"/><use x="19" y="61" xlink:href="#block"/><use x="25" y="61" xlink:href="#block"/><use x="31" y="61" xlink:href="#block"/><use x="37" y="61" xlink:href="#block"/><use x="61" y="61" xlink:href="#block"/><use x="67" y="61" xlink:href="#block"/><use x="79" y="61" xlink:href="#block"/><use x="85" y="61" xlink:href="#block"/><use x="97" y="61" xlink:href="#block"/><use x="109" y="61" xlink:href="#block"/><use x="115" y="61" xlink:href="#block"/><use x="127" y="61" xlink:href="#block"/><use x="139" y="61" xlink:href="#block"/><use x="145" y="61" xlink:href="#block"/><use x="151" y="61" xlink:href="#block"/><use x="169" y="61" xlink:href="#block"/><use x="181" y="61" xlink:href="#block"/><use x="193" y="61" xlink:href="#block"/><use x="199" y="61" xlink:href="#block"/><use x="7" y="67" xlink:href="#block"/><use x="37" y="67" xlink:href="#block"/><use x="43" y="67" xlink:href="#block"/><use x="103" y="67" xlink:href="#block"/><use x="115" y="67" xlink:href="#block"/><use x="121" y="67" xlink:href="#block"/><use x="133" y="67" xlink:href="#block"/><use x="139" y="67" xlink:href="#block"/><use x="151" y="67" xlink:href="#block"/><use x="163" y="67" xlink:href="#block"/><use x="7" y="73" xlink:href="#block"/><use x="19" y="73" xlink:href="#block"/><use x="25" y="73" xlink:href="#block"/><use x="49" y="73" xlink:href="#block"/><use x="61" y="73" xlink:href="#block"/><use x="91" y="73" xlink:href="#block"/><use x="97" y="73" xlink:href="#block"/><use x="103" y="73" xlink:href="#block"/><use x="115" y="73" xlink:href="#block"/><use x="121" y="73" xlink:href="#block"/><use x="139" y="73" xlink:href="#block"/><use x="145" y="73" xlink:href="#block"/><use x="151" y="73" xlink:href="#block"/><use x="163" y="73" xlink:href="#block"/><use x="169" y="73" xlink:href="#block"/><use x="181" y="73" xlink:href="#block"/><use x="199" y="73" xlink:href="#block"/><use x="7" y="79" xlink:href="#block"/><use x="13" y="79" xlink:href="#block"/><use x="37" y="79" xlink:href="#block"/><use x="43" y="79" xlink:href="#block"/><use x="49" y="79" xlink:href="#block"/><use x="55" y="79" xlink:href="#block"/><use x="73" y="79" xlink:href="#block"/><use x="85" y="79" xlink:href="#block"/><use x="97" y="79" xlink:href="#block"/><use x="103" y="79" xlink:href="#block"/><use x="133" y="79" xlink:href="#block"/><use x="139" y="79" xlink:href="#block"/><use x="145" y="79" xlink:href="#block"/><use x="175" y="79" xlink:href="#block"/><use x="187" y="79" xlink:href="#block"/><use x="193" y="79" xlink:href="#block"/><use x="199" y="79" xlink:href="#block"/><use x="7" y="85" xlink:href="#block"/><use x="13" y="85" xlink:href="#block"/><use x="25" y="85" xlink:href="#block"/><use x="31" y="85" xlink:href="#block"/><use x="37" y="85" xlink:href="#block"/><use x="49" y="85" xlink:href="#block"/><use x="67" y="85" xlink:href="#block"/><use x="79" y="85" xlink:href="#block"/><use x="97" y="85" xlink:href="#block"/><use x="103" y="85" xlink:href="#block"/><use x="115" y="85" xlink:href="#block"/><use x="121" y="85" xlink:href="#block"/><use x="139" y="85" xlink:href="#block"/><use x="145" y="85" xlink:href="#block"/><use x="151" y="85" xlink:href="#block"/><use x="157" y="85" xlink:href="#block"/><use x="13" y="91" xlink:href="#block"/><use x="19" y="91" xlink:href="#block"/><use x="25" y="91" xlink:href="#block"/><use x="31" y="91" xlink:href="#block"/><use x="37" y="91" xlink:href="#block"/><use x="43" y="91" xlink:href="#block"/><use x="55" y="91" xlink:href="#block"/><use x="67" y="91" xlink:href="#block"/><use x="73" y="91" xlink:href="#block"/><use x="79" y="91" xlink:href="#block"/><use x="103" y="91" xlink:href="#block"/><use x="109" y="91" xlink:href="#block"/><use x="121" y="91" xlink:href="#block"/><use x="127" y="91" xlink:href="#block"/><use x="139" y="91" xlink:href="#block"/><use x="151" y="91" xlink:href="#block"/><use x="163" y="91" xlink:href="#block"/><use x="175" y="91" xlink:href="#block"/><use x="181" y="91" xlink:href="#block"/><use x="187" y="91" xlink:href="#block"/><use x="199" y="91" xlink:href="#block"/><use x="19" y="97" xlink:href="#block"/><use x="25" y="97" xlink:href="#block"/><use x="31" y="97" xlink:href="#block"/><use x="49" y="97" xlink:href="#block"/><use x="55" y="97" xlink:href="#block"/><use x="79" y="97" xlink:href="#block"/><use x="85" y="97" xlink:href="#block"/><use x="91" y="97" xlink:href="#block"/><use x="97" y="97" xlink:href="#block"/><use x="115" y="97" xlink:href="#block"/><use x="121" y="97" xlink:href="#block"/><use x="133" y="97" xlink:href="#block"/><use x="139" y="97" xlink:href="#block"/><use x="145" y="97" xlink:href="#block"/><use x="163" y="97" xlink:href="#block"/><use x="199" y="97" xlink:href="#block"/><use x="13" y="103" xlink:href="#block"/><use x="31" y="103" xlink:href="#block"/><use x="43" y="103" xlink:href="#block"/><use x="49" y="103" xlink:href="#block"/><use x="67" y="103" xlink:href="#block"/><use x="73" y="103" xlink:href="#block"/><use x="85" y="103" xlink:href="#block"/><use x="97" y="103" xlink:href="#block"/><use x="103" y="103" xlink:href="#block"/><use x="109" y="103" xlink:href="#block"/><use x="115" y="103" xlink:href="#block"/><use x="121" y="103" xlink:href="#block"/><use x="127" y="103" xlink:href="#block"/><use x="139" y="103" xlink:href="#block"/><use x="145" y="103" xlink:href="#block"/><use x="151" y="103" xlink:href="#block"/><use x="181" y="103" xlink:href="#block"/><use x="187" y="103" xlink:href="#block"/><use x="193" y="103" xlink:href="#block"/><use x="7" y="109" xlink:href="#block"/><use x="13" y="109" xlink:href="#block"/><use x="19" y="109" xlink:href="#block"/><use x="49" y="109" xlink:href="#block"/><use x="61" y="109" xlink:href="#block"/><use x="67" y="109" xlink:href="#block"/><use x="79" y="109" xlink:href="#block"/><use x="91" y="109" xlink:href="#block"/><use x="103" y="109" xlink:href="#block"/><use x="115" y="109" xlink:href="#block"/><use x="127" y="109" xlink:href="#block"/><use x="157" y="109" xlink:href="#block"/><use x="163" y="109" xlink:href="#block"/><use x="175" y="109" xlink:href="#block"/><use x="193" y="109" xlink:href="#block"/><use x="7" y="115" xlink:href="#block"/><use x="13" y="115" xlink:href="#block"/><use x="19" y="115" xlink:href="#block"/><use x="25" y="115" xlink:href="#block"/><use x="31" y="115" xlink:href="#block"/><use x="37" y="115" xlink:href="#block"/><use x="43" y="115" xlink:href="#block"/><use x="67" y="115" xlink:href="#block"/><use x="73" y="115" xlink:href="#block"/><use x="85" y="115" xlink:href="#block"/><use x="103" y="115" xlink:href="#block"/><use x="109" y="115" xlink:href="#block"/><use x="115" y="115" xlink:href="#block"/><use x="127" y="115" xlink:href="#block"/><use x="145" y="115" xlink:href="#block"/><use x="169" y="115" xlink:href="#block"/><use x="187" y="115" xlink:href="#block"/><use x="193" y="115" xlink:href="#block"/><use x="199" y="115" xlink:href="#block"/><use x="19" y="121" xlink:href="#block"/><use x="25" y="121" xlink:href="#block"/><use x="37" y="121" xlink:href="#block"/><use x="61" y="121" xlink:href="#block"/><use x="79" y="121" xlink:href="#block"/><use x="97" y="121" xlink:href="#block"/><use x="103" y="121" xlink:href="#block"/><use x="109" y="121" xlink:href="#block"/><use x="115" y="121" xlink:href="#block"/><use x="139" y="121" xlink:href="#block"/><use x="145" y="121" xlink:href="#block"/><use x="151" y="121" xlink:href="#block"/><use x="163" y="121" xlink:href="#block"/><use x="169" y="121" xlink:href="#block"/><use x="187" y="121" xlink:href="#block"/><use x="199" y="121" xlink:href="#block"/><use x="19" y="127" xlink:href="#block"/><use x="25" y="127" xlink:href="#block"/><use x="31" y="127" xlink:href="#block"/><use x="43" y="127" xlink:href="#block"/><use x="55" y="127" xlink:href="#block"/><use x="79" y="127" xlink:href="#block"/><use x="85" y="127" xlink:href="#block"/><use x="109" y="127" xlink:href="#block"/><use x="139" y="127" xlink:href="#block"/><use x="145" y="127" xlink:href="#block"/><use x="169" y="127" xlink:href="#block"/><use x="187" y="127" xlink:href="#block"/><use x="199" y="127" xlink:href="#block"/><use x="19" y="133" xlink:href="#block"/><use x="25" y="133" xlink:href="#block"/><use x="37" y="133" xlink:href="#block"/><use x="55" y="133" xlink:href="#block"/><use x="73" y="133" xlink:href="#block"/><use x="79" y="133" xlink:href="#block"/><use x="85" y="133" xlink:href="#block"/><use x="91" y="133" xlink:href="#block"/><use x="97" y="133" xlink:href="#block"/><use x="103" y="133" xlink:href="#block"/><use x="115" y="133" xlink:href="#block"/><use x="121" y="133" xlink:href="#block"/><use x="139" y="133" xlink:href="#block"/><use x="169" y="133" xlink:href="#block"/><use x="175" y="133" xlink:href="#block"/><use x="181" y="133" xlink:href="#block"/><use x="193" y="133" xlink:href="#block"/><use x="199" y="133" xlink:href="#block"/><use x="7" y="139" xlink:href="#block"/><use x="13" y="139" xlink:href="#block"/><use x="19" y="139" xlink:href="#block"/><use x="43" y="139" xlink:href="#block"/><use x="55" y="139" xlink:href="#block"/><use x="85" y="139" xlink:href="#block"/><use x="91" y="139" xlink:href="#block"/><use x="103" y="139" xlink:href="#block"/><use x="127" y="139" xlink:href="#block"/><use x="145" y="139" xlink:href="#block"/><use x="163" y="139" xlink:href="#block"/><use x="169" y="139" xlink:href="#block"/><use x="199" y="139" xlink:href="#block"/><use x="31" y="145" xlink:href="#block"/><use x="37" y="145" xlink:href="#block"/><use x="49" y="145" xlink:href="#block"/><use x="55" y="145" xlink:href="#block"/><use x="67" y="145" xlink:href="#block"/><use x="79" y="145" xlink:href="#block"/><use x="91" y="145" xlink:href="#block"/><use x="109" y="145" xlink:href="#block"/><use x="121" y="145" xlink:href="#block"/><use x="133" y="145" xlink:href="#block"/><use x="157" y="145" xlink:href="#block"/><use x="163" y="145" xlink:href="#block"/><use x="181" y="145" xlink:href="#block"/><use x="199" y="145" xlink:href="#block"/><use x="7" y="151" xlink:href="#block"/><use x="13" y="151" xlink:href="#block"/><use x="31" y="151" xlink:href="#block"/><use x="43" y="151" xlink:href="#block"/><use x="61" y="151" xlink:href="#block"/><use x="85" y="151" xlink:href="#block"/><use x="97" y="151" xlink:href="#block"/><use x="115" y="151" xlink:href="#block"/><use x="121" y="151" xlink:href="#block"/><use x="145" y="151" xlink:href="#block"/><use x="151" y="151" xlink:href="#block"/><use x="157" y="151" xlink:href="#block"/><use x="163" y="151" xlink:href="#block"/><use x="169" y="151" xlink:href="#block"/><use x="175" y="151" xlink:href="#block"/><use x="181" y="151" xlink:href="#block"/><use x="187" y="151" xlink:href="#block"/><use x="199" y="151" xlink:href="#block"/><use x="55" y="157" xlink:href="#block"/><use x="61" y="157" xlink:href="#block"/><use x="67" y="157" xlink:href="#block"/><use x="73" y="157" xlink:href="#block"/><use x="85" y="157" xlink:href="#block"/><use x="91" y="157" xlink:href="#block"/><use x="115" y="157" xlink:href="#block"/><use x="133" y="157" xlink:href="#block"/><use x="151" y="157" xlink:href="#block"/><use x="175" y="157" xlink:href="#block"/><use x="181" y="157" xlink:href="#block"/><use x="193" y="157" xlink:href="#block"/><use x="199" y="157" xlink:href="#block"/><use x="7" y="163" xlink:href="#block"/><use x="13" y="163" xlink:href="#block"/><use x="19" y="163" xlink:href="#block"/><use x="25" y="163" xlink:href="#block"/><use x="31" y="163" xlink:href="#block"/><use x="37" y="163" xlink:href="#block"/><use x="43" y="163" xlink:href="#block"/><use x="55" y="163" xlink:href="#block"/><use x="67" y="163" xlink:href="#block"/><use x="79" y="163" xlink:href="#block"/><use x="97" y="163" xlink:href="#block"/><use x="115" y="163" xlink:href="#block"/><use x="121" y="163" xlink:href="#block"/><use x="145" y="163" xlink:href="#block"/><use x="151" y="163" xlink:href="#block"/><use x="163" y="163" xlink:href="#block"/><use x="175" y="163" xlink:href="#block"/><use x="187" y="163" xlink:href="#block"/><use x="7" y="169" xlink:href="#block"/><use x="43" y="169" xlink:href="#block"/><use x="55" y="169" xlink:href="#block"/><use x="67" y="169" xlink:href="#block"/><use x="73" y="169" xlink:href="#block"/><use x="79" y="169" xlink:href="#block"/><use x="85" y="169" xlink:href="#block"/><use x="91" y="169" xlink:href="#block"/><use x="109" y="169" xlink:href="#block"/><use x="121" y="169" xlink:href="#block"/><use x="133" y="169" xlink:href="#block"/><use x="145" y="169" xlink:href="#block"/><use x="151" y="169" xlink:href="#block"/><use x="175" y="169" xlink:href="#block"/><use x="181" y="169" xlink:href="#block"/><use x="187" y="169" xlink:href="#block"/><use x="199" y="169" xlink:href="#block"/><use x="7" y="175" xlink:href="#block"/><use x="19" y="175" xlink:href="#block"/><use x="25" y="175" xlink:href="#block"/><use x="31" y="175" xlink:href="#block"/><use x="43" y="175" xlink:href="#block"/><use x="97" y="175" xlink:href="#block"/><use x="109" y="175" xlink:href="#block"/><use x="115" y="175" xlink:href="#block"/><use x="133" y="175" xlink:href="#block"/><use x="151" y="175" xlink:href="#block"/><use x="157" y="175" xlink:href="#block"/><use x="163" y="175" xlink:href="#block"/><use x="169" y="175" xlink:href="#block"/><use x="175" y="175" xlink:href="#block"/><use x="193" y="175" xlink:href="#block"/><use x="199" y="175" xlink:href="#block"/><use x="7" y="181" xlink:href="#block"/><use x="19" y="181" xlink:href="#block"/><use x="25" y="181" xlink:href="#block"/><use x="31" y="181" xlink:href="#block"/><use x="43" y="181" xlink:href="#block"/><use x="61" y="181" xlink:href="#block"/><use x="67" y="181" xlink:href="#block"/><use x="79" y="181" xlink:href="#block"/><use x="91" y="181" xlink:href="#block"/><use x="97" y="181" xlink:href="#block"/><use x="115" y="181" xlink:href="#block"/><use x="121" y="181" xlink:href="#block"/><use x="127" y="181" xlink:href="#block"/><use x="151" y="181" xlink:href="#block"/><use x="157" y="181" xlink:href="#block"/><use x="181" y="181" xlink:href="#block"/><use x="187" y="181" xlink:href="#block"/><use x="193" y="181" xlink:href="#block"/><use x="7" y="187" xlink:href="#block"/><use x="19" y="187" xlink:href="#block"/><use x="25" y="187" xlink:href="#block"/><use x="31" y="187" xlink:href="#block"/><use x="43" y="187" xlink:href="#block"/><use x="55" y="187" xlink:href="#block"/><use x="61" y="187" xlink:href="#block"/><use x="79" y="187" xlink:href="#block"/><use x="109" y="187" xlink:href="#block"/><use x="115" y="187" xlink:href="#block"/><use x="121" y="187" xlink:href="#block"/><use x="127" y="187" xlink:href="#block"/><use x="151" y="187" xlink:href="#block"/><use x="157" y="187" xlink:href="#block"/><use x="163" y="187" xlink:href="#block"/><use x="169" y="187" xlink:href="#block"/><use x="181" y="187" xlink:href="#block"/><use x="193" y="187" xlink:href="#block"/><use x="199" y="187" xlink:href="#block"/><use x="7" y="193" xlink:href="#block"/><use x="43" y="193" xlink:href="#block"/><use x="61" y="193" xlink:href="#block"/><use x="67" y="193" xlink:href="#block"/><use x="79" y="193" xlink:href="#block"/><use x="97" y="193" xlink:href="#block"/><use x="115" y="193" xlink:href="#block"/><use x="121" y="193" xlink:href="#block"/><use x="133" y="193" xlink:href="#block"/><use x="139" y="193" xlink:href="#block"/><use x="145" y="193" xlink:href="#block"/><use x="157" y="193" xlink:href="#block"/><use x="175" y="193" xlink:href="#block"/><use x="181" y="193" xlink:href="#block"/><use x="187" y="193" xlink:href="#block"/><use x="193" y="193" xlink:href="#block"/><use x="199" y="193" xlink:href="#block"/><use x="7" y="199" xlink:href="#block"/><use x="13" y="199" xlink:href="#block"/><use x="19" y="199" xlink:href="#block"/><use x="25" y="199" xlink:href="#block"/><use x="31" y="199" xlink:href="#block"/><use x="37" y="199" xlink:href="#block"/><use x="43" y="199" xlink:href="#block"/><use x="67" y="199" xlink:href="#block"/><use x="85" y="199" xlink:href="#block"/><use x="97" y="199" xlink:href="#block"/><use x="103" y="199" xlink:href="#block"/><use x="151" y="199" xlink:href="#block"/><use x="157" y="199" xlink:href="#block"/><use x="175" y="199" xlink:href="#block"/><use x="181" y="199" xlink:href="#block"/><use x="187" y="199" xlink:href="#block"/><use x="199" y="199" xlink:href="#block"/></svg>
